# xmcd
#
# Track frame offsets: 
#        150
#        20319
#        43230
#        65008
#        89674
#        108487
#        130608
#        153822
#        175056
#        196390
#        223263
#
# Disc length: 3296 seconds
#
# Revision: 1
# Processed by: cddbd v1.5.2PL0 Copyright (c) Steve Scherf et al.
# Submitted via: ExactAudioCopy v1.3
#
DISCID=990cde0b
DTITLE=Dave Koz and Friends - Summer Horns II: From A To Z
DYEAR=2018
DGENRE=Jazz
TTITLE0=Getaway and That's The Way (I Like It)
TTITLE1=More Today Than Yesterday
TTITLE2=Keep That Same Old Feeling
TTITLE3=From A to Z (Take The A Train, Make The Road by Walking)
TTITLE4=This Will Be (An Everlasting Love)
TTITLE5=Before I Let Go
TTITLE6=Late In The Evening
TTITLE7=If You Really Love Me
TTITLE8=Conga
TTITLE9=Earth Song
TTITLE10=Route 66
EXTD=YEAR: 2018
EXTT0=
EXTT1=
EXTT2=
EXTT3=
EXTT4=
EXTT5=
EXTT6=
EXTT7=
EXTT8=
EXTT9=
EXTT10=
PLAYORDER=
